<?xml version="1.0" encoding="UTF-8"?>
<svg id="Layer_2" data-name="Layer 2" xmlns="http://www.w3.org/2000/svg" viewBox="0 0 1076.1 701.4">
  <g id="Layer_1-2" data-name="Layer 1">
    <path d="M139.2,690.6C57.1,727.7,3.4,664.1.2,574.4c-2.2-69.7,16.5-131.6,36.2-203.8,10.3-36.3,20.9-73,31.5-109.1,22.3-72.3,45.3-166.7,94.5-219.9C225.8-26.7,338.2-.7,393.9,46.8c74.4,62.5,34.7,158.9-4.3,249.6-18.6,42.4-41.2,90-61.9,134.3-45.4,96.1-99.4,220.2-188.4,259.9h-.1Z" style="fill: #fadc14;"/>
    <path d="M936.8,690.6c82.2,37.1,135.8-26.5,139-116.2,2.2-69.7-16.5-131.6-36.2-203.8-10.3-36.3-20.9-73-31.5-109.1-22.3-72.3-45.3-166.7-94.5-219.9-63.5-68.3-175.9-42.2-231.6,5.3-74.4,62.5-34.7,158.9,4.3,249.6,18.6,42.4,41.2,90,61.9,134.3,45.4,96.1,99.4,220.2,188.4,259.9h.1Z" style="fill: #fadc14;"/>
    <rect x="261.1" y="0" width="550" height="473.7" style="fill: #fadc14;"/>
    <rect x="258.3" y="118.6" width="67.4" height="236" rx="33.7" ry="33.7" style="fill: #1f2937;"/>
    <circle cx="681.4" cy="236.6" r="42.1" style="fill: #1f2937;"/>
    <circle cx="858.4" cy="236.6" r="42.1" style="fill: #1f2937;"/>
    <circle cx="769.9" cy="325.1" r="42.1" style="fill: #1f2937;"/>
    <circle cx="769.9" cy="148.6" r="42.1" style="fill: #1f2937;"/>
    <rect x="258.3" y="118.6" width="67.4" height="236" rx="33.7" ry="33.7" transform="translate(55.4 528.6) rotate(-90)" style="fill: #1f2937;"/>
  </g>
</svg>