<?xml version="1.0" encoding="UTF-8"?>
<svg id="Layer_2" data-name="Layer 2" xmlns="http://www.w3.org/2000/svg" viewBox="0 0 1080 764.3">
  <g id="Layer_5" data-name="Layer 5">
    <g>
      <path d="M621.8,31.5c-58.7-50.5-130.7-25.8-138.7-22.8-16.1,6-55.9,24.8-75.8,68.6-6.5,14.2-10.2,29.4-11.1,45.3,0,.3,0,.6,0,1,0,0,0,0,0,0h0c0,.6,0,1.3,0,1.9,0,22.2,18,40.3,40.3,40.3s39.2-17,40.2-38.3h0c.3-6,1.6-11.6,4-16.8,7.5-16.4,24-24,30.6-26.5,1.4-.5,34.4-12.1,58.1,8.3,15.3,13.1,20.3,32.9,18.4,46.7-2,15.4-13.6,33.8-28.2,44.6-2,1.5-4.4,3.1-6.9,4.8-11.2,7.4-26.6,17.6-38.5,38.5-8.2,14.3-12.9,30.4-14,47.9v1.3c0,0,0,62.6,0,62.6h80.5v-59.8c.4-4.8,1.6-8.8,3.5-12.2,2.2-3.9,4.6-5.7,13-11.3,3.2-2.1,6.8-4.5,10.6-7.4,32-23.9,54.9-61.7,59.8-98.5,5.8-43.7-11.7-89.1-45.7-118.3Z" style="fill: #73b6ff;"/>
      <path d="M1079.3,631.4c-4.7-44.8-32.5-71.7-44.2-81.2l-3.3-2.6-451.3-265.1v-1.5h-80.6v1.1L48.2,547.6l-3.3,2.6c-11.7,9.5-39.5,36.4-44.2,81.2-5.3,50.4,22.8,85,31.6,94.4,32,34.4,72.4,38.5,89.6,38.5s2.1,0,3,0h830.2c.9,0,1.9,0,3,0,17.2,0,57.7-4.1,89.6-38.5,8.7-9.4,36.9-44.1,31.6-94.4ZM965,649.2c-2.1,2.1-5.9,2.3-6.5,2.4h-1c0,0-15,0-15,0H121.5c-.6,0-4.4-.2-6.5-2.3-.4-.5-2.5-3.3-2.2-6.1.2-1.5.9-2.8,1.6-3.7l425.6-250.1,425.6,250.1c.7,1,1.5,2.3,1.6,3.8.3,2.8-1.8,5.6-2.2,6.1Z" style="fill: #fff;"/>
    </g>
  </g>
</svg>