<?xml version="1.0" encoding="UTF-8"?>
<svg id="Layer_2" data-name="Layer 2" xmlns="http://www.w3.org/2000/svg" viewBox="0 0 1080 880">
  <g id="Layer_3" data-name="Layer 3">
    <g>
      <path d="M700,880h-320V40c0-22.1,17.9-40,40-40h240c22.1,0,40,17.9,40,40v840Z" style="fill: #fff;"/>
      <path d="M540.1,732.4v-208.8h-44.9v-29.2h79.9v238h-35Z" style="fill: #73b6ff; stroke: #73b6ff; stroke-miterlimit: 10; stroke-width: 20px;"/>
      <path d="M317.6,880H0V240c0-22.1,17.9-40,40-40h237.6c22.1,0,40,17.9,40,40v640Z" style="fill: #fff;"/>
      <path d="M95,703.2h160.8v29.2H85.8c-9.5,0-16.3-2.2-20.4-6.5-4.1-4.3-6.1-11.3-6.1-21.1v-58.1c0-9.7,2-16.8,6.1-21.1,4.1-4.3,10.9-6.5,20.4-6.5h92.8c15.4,0,27.5-4.2,36.2-12.6,8.7-8.4,13.1-20.7,13.1-37.1s-3.6-25.5-10.7-33.7c-7.1-8.2-17.7-12.2-31.8-12.2h-119v-29.2h125.5c12.2,0,22.9,1.9,32,5.8,9.1,3.9,16.6,9.3,22.6,16.5,6,7.1,10.4,15.7,13.3,25.7,2.8,10,4.2,21.1,4.2,33.3,0,25.4-6,43.9-18,55.4-12,11.6-30,17.3-54.1,17.3h-97.2l.3,54.7Z" style="fill: #73b6ff; stroke: #73b6ff; stroke-miterlimit: 10; stroke-width: 20px;"/>
      <path d="M1080,880h-318.4V360c0-22.1,17.9-40,40-40h238.4c22.1,0,40,17.9,40,40v520Z" style="fill: #fff;"/>
      <path d="M832.6,732.4v-29.2h117c10.9,0,19.6-3.7,26.2-11,6.6-7.4,9.9-16.5,9.9-27.4s-3.3-19.9-10-27c-6.7-7.1-15.4-10.7-26-10.7h-93.5v-29.2h79.6c10.4,0,19-3.5,25.8-10.4,6.8-6.9,10.2-15.8,10.2-26.7s-3.4-19.8-10.2-26.7c-6.8-6.9-15.4-10.4-25.8-10.4h-103v-29.2h103c9.5,0,18.6,1.4,27.4,4.2,8.7,2.8,16.4,7.1,23.1,12.8,6.7,5.7,12,12.6,15.8,20.9,3.9,8.3,5.8,17.7,5.8,28.4s-1.6,17.8-4.8,24.8c-3.2,7-7.5,14.2-12.9,21.4,10.2,7.7,18,15.9,23.5,24.5,5.4,8.6,8.2,19.7,8.2,33.3s-1.9,20.2-5.8,28.6c-3.9,8.4-9,15.5-15.5,21.2-6.5,5.8-14.1,10.2-22.8,13.3-8.7,3.1-18.1,4.6-28.1,4.6h-117Z" style="fill: #73b6ff; stroke: #73b6ff; stroke-miterlimit: 10; stroke-width: 20px;"/>
    </g>
  </g>
</svg>