<?xml version="1.0" encoding="UTF-8"?>
<svg id="Layer_2" data-name="Layer 2" xmlns="http://www.w3.org/2000/svg" viewBox="0 0 1080 1025.6">
  <g id="Layer_4" data-name="Layer 4">
    <g>
      <path d="M1050.6,396.3l-145.9-29.9c-14-34.8-32.8-67.1-55.6-96.2l47.1-141.4c5.5-16.6-1.4-34.8-16.5-43.5L740.3,4.9c-15.1-8.7-34.4-5.6-46,7.5l-98.9,111.5c-18.1-2.6-36.7-3.9-55.5-3.9s-37.4,1.4-55.5,3.9L385.6,12.4c-11.6-13.1-30.8-16.2-46-7.5l-139.3,80.4c-15.1,8.7-22.1,26.9-16.5,43.5l47.1,141.4c-22.8,29-41.6,61.4-55.6,96.2l-145.9,29.9C12.3,399.8,0,414.9,0,432.4v160.9c0,17.5,12.3,32.6,29.4,36.1l145.9,29.9c14,34.8,32.8,67.1,55.6,96.2l-47.1,141.4c-5.5,16.6,1.4,34.8,16.5,43.5l139.3,80.4c15.1,8.7,34.4,5.6,46-7.5l98.9-111.5c18.1,2.6,36.7,3.9,55.5,3.9s37.4-1.4,55.5-3.9l98.9,111.5c11.6,13.1,30.8,16.2,46,7.5l139.3-80.4c15.1-8.7,22.1-26.9,16.5-43.5l-47.1-141.4c22.8-29,41.6-61.4,55.6-96.2l145.9-29.9c17.1-3.5,29.4-18.6,29.4-36.1v-160.9c0-17.5-12.3-32.6-29.4-36.1Z" style="fill: #fff;"/>
      <circle cx="540" cy="512.8" r="202.5" style="fill: none; stroke: #73b6ff; stroke-miterlimit: 10; stroke-width: 80px;"/>
    </g>
  </g>
</svg>