<?xml version="1.0" encoding="UTF-8"?>
<svg id="Layer_2" data-name="Layer 2" xmlns="http://www.w3.org/2000/svg" viewBox="0 0 1040.6 992.7">
  <g id="Layer_1-2" data-name="Layer 1">
    <path d="M548.5,18l121.2,262.7c10.4,22.5,31.7,38,56.3,40.9l287.2,34.1c26.3,3.1,36.9,35.6,17.4,53.6l-212.4,196.4c-18.2,16.8-26.3,41.9-21.5,66.2l56.4,283.7c5.2,26-22.5,46.1-45.6,33.1l-252.4-141.3c-21.6-12.1-48-12.1-69.6,0l-252.4,141.3c-23.1,12.9-50.7-7.2-45.6-33.1l56.4-283.7c4.8-24.3-3.3-49.4-21.5-66.2L10,409.3c-19.4-18-8.9-50.5,17.4-53.6l287.2-34.1c24.6-2.9,45.9-18.4,56.3-40.9L492.1,18c11.1-24,45.3-24,56.3,0Z" style="fill: #fadc14;"/>
  </g>
</svg>