<?xml version="1.0" encoding="UTF-8"?>
<svg id="Layer_2" data-name="Layer 2" xmlns="http://www.w3.org/2000/svg" viewBox="0 0 1080 1080">
  <g id="Layer_1-2" data-name="Layer 1">
    <path d="M703.8,971.8H166.2c-9.9-1.5-23.3-5.3-35.3-14.9-9.6-7.7-14.5-16-15.4-17.6-4.9-8.8-6.4-17.4-6.9-23.4,0-15.5-.8-153.4,0-375h0c0-.3,0-.6,0-.9,0-.3,0-.6,0-.9h0c-.8-221.6,0-359.5,0-375,.4-6,2-14.6,6.9-23.4.9-1.6,5.8-9.9,15.4-17.6,12-9.6,25.4-13.4,35.3-14.9h537.7c29.9,0,54.1-24.2,54.1-54.1S733.7,0,703.8,0H159.7l-3,.3c-24.3,2.8-60.3,11.6-93.6,38.4-23.2,18.6-36.4,39.1-42.2,49.6C8.8,110,1.8,134.6.5,159.5v1.2c0,0,0,1.2,0,1.2,0,1.4-.9,142.9,0,378-.9,235.2,0,376.6,0,378v1.2s0,1.2,0,1.2c1.3,24.9,8.3,49.5,20.3,71.2,5.8,10.5,19,30.9,42.2,49.6,33.3,26.8,69.3,35.7,93.6,38.4l3,.3h544.1c29.9,0,54.1-24.2,54.1-54.1s-24.2-54.1-54.1-54.1Z" style="fill: #fff;"/>
    <path d="M1080,540c0-14.9-6.1-28.5-15.8-38.3h0s-229.6-229.6-229.6-229.6h0c-9.8-9.8-23.3-15.8-38.3-15.8-29.9,0-54.1,24.2-54.1,54.1s6.1,28.5,15.8,38.3h0s137.2,137.2,137.2,137.2H376.6c-29.9,0-54.1,24.2-54.1,54.1s24.2,54.1,54.1,54.1h518.7l-137.2,137.2h0c-9.8,9.8-15.8,23.3-15.8,38.3,0,29.9,24.2,54.1,54.1,54.1s28.5-6.1,38.3-15.8h0s229.6-229.6,229.6-229.6h0c9.8-9.8,15.8-23.3,15.8-38.3Z" style="fill: #73b6ff;"/>
  </g>
</svg>